<?xml version="1.0" standalone="no"?>
<!DOCTYPE svg PUBLIC "-//W3C//DTD SVG 20010904//EN"
 "http://www.w3.org/TR/2001/REC-SVG-20010904/DTD/svg10.dtd">
<svg version="1.0" xmlns="http://www.w3.org/2000/svg"
 width="149.000000pt" height="35.000000pt" viewBox="0 0 149.000000 35.000000"
 preserveAspectRatio="xMidYMid meet">

<g transform="translate(0.000000,35.000000) scale(0.100000,-0.100000)"
fill="#000000" stroke="none">
<path d="M945 230 c-3 -5 -1 -10 4 -10 6 0 11 5 11 10 0 6 -2 10 -4 10 -3 0
-8 -4 -11 -10z"/>
<path d="M630 176 c0 -19 5 -38 10 -41 6 -4 10 10 10 34 0 23 -4 41 -10 41 -5
0 -10 -15 -10 -34z"/>
<path d="M890 175 c0 -19 5 -35 10 -35 6 0 10 16 10 35 0 19 -4 35 -10 35 -5
0 -10 -16 -10 -35z"/>
<path d="M488 189 c-12 -6 -18 -22 -18 -44 0 -34 16 -48 26 -22 2 7 21 12 43
12 49 0 75 20 60 46 -7 14 -21 19 -52 19 -23 0 -50 -5 -59 -11z m81 -12 c15
-19 4 -27 -36 -27 -31 0 -44 16 -26 33 11 12 50 8 62 -6z"/>
<path d="M941 165 c-1 -29 2 -36 9 -25 8 12 13 13 30 2 12 -7 20 -8 20 -2 0 5
-5 10 -11 10 -8 0 -8 5 1 15 15 18 -1 20 -18 3 -9 -9 -14 -6 -21 13 -9 22 -10
20 -10 -16z"/>
<path d="M680 158 c0 -24 3 -29 12 -20 7 7 17 8 28 2 15 -8 18 -5 16 14 -1 20
-4 22 -18 15 -14 -7 -18 -6 -18 6 0 8 -4 15 -10 15 -5 0 -10 -14 -10 -32z"/>
<path d="M788 183 c-18 -5 -31 -30 -22 -44 3 -5 10 -7 15 -3 5 3 7 10 4 15 -7
11 35 28 53 22 6 -3 12 -11 12 -19 0 -8 5 -14 10 -14 18 0 11 29 -9 40 -20 10
-33 11 -63 3z"/>
</g>
</svg>
